<?xml version="1.0" standalone="no"?>
<!DOCTYPE svg PUBLIC "-//W3C//DTD SVG 20010904//EN"
 "http://www.w3.org/TR/2001/REC-SVG-20010904/DTD/svg10.dtd">
<svg version="1.0" xmlns="http://www.w3.org/2000/svg"
 width="200.000000pt" height="200.000000pt" viewBox="0 0 200.000000 200.000000"
 preserveAspectRatio="xMidYMid meet">
<metadata>
Created by potrace 1.11, written by Peter Selinger 2001-2013
</metadata>
<g transform="translate(0.000000,200.000000) scale(0.100000,-0.100000)"
fill="#000000" stroke="none">
<path d="M15 1969 c-2 -3 -4 -40 -4 -81 0 -87 -5 -83 109 -93 77 -7 89 -10 99
-21 5 -5 56 -148 114 -319 58 -170 135 -398 171 -505 l66 -194 -15 -76 c-16
-79 -18 -88 -31 -160 -4 -25 -8 -47 -9 -50 -1 -3 -5 -25 -10 -50 -5 -25 -9
-47 -10 -50 0 -3 -4 -25 -8 -50 -11 -69 -42 -101 -102 -106 -28 -3 -68 -6 -90
-8 -22 -3 -47 -5 -56 -5 -14 -1 -17 -15 -18 -88 l-2 -88 491 0 490 0 0 86 c0
62 -3 86 -12 86 -7 0 -29 3 -48 6 -19 3 -61 9 -93 12 -95 12 -94 4 -31 324
l54 273 287 382 c158 209 322 426 363 481 l77 100 96 19 97 19 -2 81 -3 81
-358 0 c-225 0 -361 -3 -365 -9 -3 -6 -6 -43 -7 -83 -1 -83 -5 -79 95 -89 36
-4 75 -10 86 -15 51 -18 40 -39 -168 -322 -111 -149 -221 -300 -246 -334 -25
-35 -47 -61 -49 -60 -3 4 -82 223 -108 302 -7 22 -41 116 -74 209 -76 211 -76
210 54 221 l85 7 0 87 0 86 -456 0 c-251 0 -457 -3 -459 -6z"/>
</g>
</svg>
